M48
INCH,TZ
T1C0.031
T2C0.032
%
G90
G05
T1
X18500Y-11000
X18500Y-17000
X18500Y-23000
X18500Y-29000
X18500Y-35000
X18500Y-41000
X18500Y-47000
X18500Y-53000
X19500Y-11000
X19500Y-17000
X19500Y-23000
X19500Y-29000
X19500Y-35000
X19500Y-41000
X19500Y-47000
X19500Y-53000
X29250Y-22000
X29250Y-23000
X29250Y-41000
X29250Y-42000
X30250Y-22000
X30250Y-23000
X30250Y-41000
X30250Y-42000
X31250Y-22000
X31250Y-23000
X31250Y-41000
X31250Y-42000
X31800Y-24400
X32250Y-22000
X32250Y-23000
X32250Y-41000
X32250Y-42000
X36000Y-28600
X42000Y-38000
X46000Y-25000
X47000Y-20000
X47250Y-23000
X48000Y-20000
X48250Y-22000
X48250Y-23000
X48250Y-41000
X48250Y-42000
X49000Y-20000
X49250Y-22000
X49250Y-23000
X49250Y-41000
X49250Y-42000
X50250Y-22000
X50250Y-23000
X50250Y-41000
X50250Y-42000
X51250Y-22000
X51250Y-23000
X51250Y-41000
X51250Y-42000
T2
X30300Y-18500
X31300Y-18500
X48000Y-17500
X49000Y-17500
T0
M30
