G04 #@! TF.FileFunction,Legend,Top*
%FSLAX46Y46*%
G04 Gerber Fmt 4.6, Leading zero omitted, Abs format (unit mm)*
G04 Created by KiCad (PCBNEW (2015-07-24 BZR 5989, Git 9b9c794)-product) date 27/07/2015 21:02:08*
%MOMM*%
G01*
G04 APERTURE LIST*
%ADD10C,0.100000*%
%ADD11C,0.150000*%
%ADD12C,0.119380*%
%ADD13C,0.099060*%
%ADD14C,0.152400*%
G04 APERTURE END LIST*
D10*
D11*
X77438210Y-94951047D02*
X76438210Y-94951047D01*
X76438210Y-96651047D02*
X77438210Y-96651047D01*
X77438210Y-92411047D02*
X76438210Y-92411047D01*
X76438210Y-94111047D02*
X77438210Y-94111047D01*
X85510000Y-67572000D02*
X85510000Y-68572000D01*
X87210000Y-68572000D02*
X87210000Y-67572000D01*
X82970000Y-67572000D02*
X82970000Y-68572000D01*
X84670000Y-68572000D02*
X84670000Y-67572000D01*
D12*
X72372220Y-74162920D02*
X71130160Y-74162920D01*
X72372220Y-74162920D02*
X72372220Y-73134220D01*
X72372220Y-73134220D02*
X73400920Y-73134220D01*
X72372220Y-82301080D02*
X72372220Y-83329780D01*
X72372220Y-83329780D02*
X73400920Y-83329780D01*
X82567780Y-82301080D02*
X82567780Y-83329780D01*
X82567780Y-83329780D02*
X81539080Y-83329780D01*
X82567780Y-74162920D02*
X82567780Y-73134220D01*
X82567780Y-73134220D02*
X81539080Y-73134220D01*
D13*
X70758990Y-74482960D02*
G75*
G03X70758990Y-74482960I-68250J0D01*
G01*
D11*
X71874000Y-65952000D02*
X70874000Y-65952000D01*
X70874000Y-67652000D02*
X71874000Y-67652000D01*
X74256000Y-89356710D02*
X74256000Y-88356710D01*
X72556000Y-88356710D02*
X72556000Y-89356710D01*
X71208000Y-89356710D02*
X71208000Y-88356710D01*
X69508000Y-88356710D02*
X69508000Y-89356710D01*
X73752497Y-94689958D02*
X73752497Y-93689958D01*
X72052497Y-93689958D02*
X72052497Y-94689958D01*
X71212497Y-94689958D02*
X71212497Y-93689958D01*
X69512497Y-93689958D02*
X69512497Y-94689958D01*
X80104274Y-88696314D02*
X80104274Y-87696314D01*
X78404274Y-87696314D02*
X78404274Y-88696314D01*
X77986000Y-67652000D02*
X78986000Y-67652000D01*
X78986000Y-65952000D02*
X77986000Y-65952000D01*
X77986000Y-69938000D02*
X78986000Y-69938000D01*
X78986000Y-68238000D02*
X77986000Y-68238000D01*
X85184274Y-88696314D02*
X85184274Y-87696314D01*
X83484274Y-87696314D02*
X83484274Y-88696314D01*
X71874000Y-68238000D02*
X70874000Y-68238000D01*
X70874000Y-69938000D02*
X71874000Y-69938000D01*
X88050000Y-67572000D02*
X88050000Y-68572000D01*
X89750000Y-68572000D02*
X89750000Y-67572000D01*
X90590000Y-67572000D02*
X90590000Y-68572000D01*
X92290000Y-68572000D02*
X92290000Y-67572000D01*
X59190000Y-26250000D02*
X60190000Y-26250000D01*
X60190000Y-24550000D02*
X59190000Y-24550000D01*
X59190000Y-41490000D02*
X60190000Y-41490000D01*
X60190000Y-39790000D02*
X59190000Y-39790000D01*
X60190000Y-32170000D02*
X59190000Y-32170000D01*
X59190000Y-33870000D02*
X60190000Y-33870000D01*
X60170000Y-47410000D02*
X59170000Y-47410000D01*
X59170000Y-49110000D02*
X60170000Y-49110000D01*
X59190000Y-56730000D02*
X60190000Y-56730000D01*
X60190000Y-55030000D02*
X59190000Y-55030000D01*
X59190000Y-71970000D02*
X60190000Y-71970000D01*
X60190000Y-70270000D02*
X59190000Y-70270000D01*
X60190000Y-62650000D02*
X59190000Y-62650000D01*
X59190000Y-64350000D02*
X60190000Y-64350000D01*
X60190000Y-77890000D02*
X59190000Y-77890000D01*
X59190000Y-79590000D02*
X60190000Y-79590000D01*
X59190000Y-87210000D02*
X60190000Y-87210000D01*
X60190000Y-85510000D02*
X59190000Y-85510000D01*
X59190000Y-102450000D02*
X60190000Y-102450000D01*
X60190000Y-100750000D02*
X59190000Y-100750000D01*
X60190000Y-93130000D02*
X59190000Y-93130000D01*
X59190000Y-94830000D02*
X60190000Y-94830000D01*
X60190000Y-108370000D02*
X59190000Y-108370000D01*
X59190000Y-110070000D02*
X60190000Y-110070000D01*
X59190000Y-117690000D02*
X60190000Y-117690000D01*
X60190000Y-115990000D02*
X59190000Y-115990000D01*
X59190000Y-132930000D02*
X60190000Y-132930000D01*
X60190000Y-131230000D02*
X59190000Y-131230000D01*
X60190000Y-123610000D02*
X59190000Y-123610000D01*
X59190000Y-125310000D02*
X60190000Y-125310000D01*
X60190000Y-138850000D02*
X59190000Y-138850000D01*
X59190000Y-140550000D02*
X60190000Y-140550000D01*
X59090000Y-27065000D02*
X60290000Y-27065000D01*
X60290000Y-28815000D02*
X59090000Y-28815000D01*
X59090000Y-42305000D02*
X60290000Y-42305000D01*
X60290000Y-44055000D02*
X59090000Y-44055000D01*
X59090000Y-57545000D02*
X60290000Y-57545000D01*
X60290000Y-59295000D02*
X59090000Y-59295000D01*
X59090000Y-72785000D02*
X60290000Y-72785000D01*
X60290000Y-74535000D02*
X59090000Y-74535000D01*
X59090000Y-88025000D02*
X60290000Y-88025000D01*
X60290000Y-89775000D02*
X59090000Y-89775000D01*
X59090000Y-103265000D02*
X60290000Y-103265000D01*
X60290000Y-105015000D02*
X59090000Y-105015000D01*
X59090000Y-118505000D02*
X60290000Y-118505000D01*
X60290000Y-120255000D02*
X59090000Y-120255000D01*
X59090000Y-133745000D02*
X60290000Y-133745000D01*
X60290000Y-135495000D02*
X59090000Y-135495000D01*
X83694194Y-85773154D02*
X79894354Y-85773154D01*
X83694194Y-92473674D02*
X83694194Y-87474954D01*
X79894354Y-92471134D02*
X79894354Y-87472414D01*
X84697494Y-85270234D02*
X83597674Y-85270234D01*
X84197114Y-84670794D02*
X84197114Y-85869674D01*
X66048000Y-24472000D02*
X67048000Y-24472000D01*
X67048000Y-22772000D02*
X66048000Y-22772000D01*
X61634000Y-19312000D02*
X61634000Y-20312000D01*
X63334000Y-20312000D02*
X63334000Y-19312000D01*
X59090000Y-29605000D02*
X60290000Y-29605000D01*
X60290000Y-31355000D02*
X59090000Y-31355000D01*
X59090000Y-44845000D02*
X60290000Y-44845000D01*
X60290000Y-46595000D02*
X59090000Y-46595000D01*
X59090000Y-60085000D02*
X60290000Y-60085000D01*
X60290000Y-61835000D02*
X59090000Y-61835000D01*
X59090000Y-75325000D02*
X60290000Y-75325000D01*
X60290000Y-77075000D02*
X59090000Y-77075000D01*
X59090000Y-90565000D02*
X60290000Y-90565000D01*
X60290000Y-92315000D02*
X59090000Y-92315000D01*
X59090000Y-105805000D02*
X60290000Y-105805000D01*
X60290000Y-107555000D02*
X59090000Y-107555000D01*
X59090000Y-121045000D02*
X60290000Y-121045000D01*
X60290000Y-122795000D02*
X59090000Y-122795000D01*
X59090000Y-136285000D02*
X60290000Y-136285000D01*
X60290000Y-138035000D02*
X59090000Y-138035000D01*
D12*
X100571300Y-99654360D02*
X99164140Y-99654360D01*
X99971860Y-97957640D02*
X99164140Y-97957640D01*
D13*
X101020550Y-99303840D02*
G75*
G03X101020550Y-99303840I-68250J0D01*
G01*
D12*
X98239580Y-90025542D02*
X98239580Y-91425082D01*
X98246000Y-91424062D02*
X99296000Y-91424062D01*
X99296000Y-91424062D02*
X99296000Y-95424062D01*
X99296000Y-95424062D02*
X98246000Y-95424062D01*
X91746000Y-91424062D02*
X90696000Y-91424062D01*
X90696000Y-91424062D02*
X90696000Y-95424062D01*
X90696000Y-95424062D02*
X91746000Y-95424062D01*
D13*
X97921750Y-89644542D02*
G75*
G03X97921750Y-89644542I-68250J0D01*
G01*
D11*
X65748000Y-21566000D02*
X68248000Y-21566000D01*
X68848000Y-21016000D02*
G75*
G03X68848000Y-21016000I-100000J0D01*
G01*
X102196000Y-93972000D02*
X102196000Y-92972000D01*
X100496000Y-92972000D02*
X100496000Y-93972000D01*
D14*
X87884000Y-120904000D02*
X86360000Y-120904000D01*
X86360000Y-117856000D02*
X87884000Y-117856000D01*
X86360000Y-117856000D02*
X86360000Y-120904000D01*
X91948000Y-120904000D02*
X90424000Y-120904000D01*
X90424000Y-117856000D02*
X91948000Y-117856000D01*
X91948000Y-117856000D02*
X91948000Y-120904000D01*
X87884000Y-117094000D02*
X86360000Y-117094000D01*
X86360000Y-114046000D02*
X87884000Y-114046000D01*
X86360000Y-114046000D02*
X86360000Y-117094000D01*
X91948000Y-117094000D02*
X90424000Y-117094000D01*
X90424000Y-114046000D02*
X91948000Y-114046000D01*
X91948000Y-114046000D02*
X91948000Y-117094000D01*
X87884000Y-113284000D02*
X86360000Y-113284000D01*
X86360000Y-110236000D02*
X87884000Y-110236000D01*
X86360000Y-110236000D02*
X86360000Y-113284000D01*
X91948000Y-113284000D02*
X90424000Y-113284000D01*
X90424000Y-110236000D02*
X91948000Y-110236000D01*
X91948000Y-110236000D02*
X91948000Y-113284000D01*
X87887969Y-132316584D02*
X86363969Y-132316584D01*
X86363969Y-129268584D02*
X87887969Y-129268584D01*
X86363969Y-129268584D02*
X86363969Y-132316584D01*
X91951969Y-132316584D02*
X90427969Y-132316584D01*
X90427969Y-129268584D02*
X91951969Y-129268584D01*
X91951969Y-129268584D02*
X91951969Y-132316584D01*
X87887969Y-128506584D02*
X86363969Y-128506584D01*
X86363969Y-125458584D02*
X87887969Y-125458584D01*
X86363969Y-125458584D02*
X86363969Y-128506584D01*
X91951969Y-128506584D02*
X90427969Y-128506584D01*
X90427969Y-125458584D02*
X91951969Y-125458584D01*
X91951969Y-125458584D02*
X91951969Y-128506584D01*
X87887969Y-124696584D02*
X86363969Y-124696584D01*
X86363969Y-121648584D02*
X87887969Y-121648584D01*
X86363969Y-121648584D02*
X86363969Y-124696584D01*
X91951969Y-124696584D02*
X90427969Y-124696584D01*
X90427969Y-121648584D02*
X91951969Y-121648584D01*
X91951969Y-121648584D02*
X91951969Y-124696584D01*
X87887969Y-136126584D02*
X86363969Y-136126584D01*
X86363969Y-133078584D02*
X87887969Y-133078584D01*
X86363969Y-133078584D02*
X86363969Y-136126584D01*
X91951969Y-136126584D02*
X90427969Y-136126584D01*
X90427969Y-133078584D02*
X91951969Y-133078584D01*
X91951969Y-133078584D02*
X91951969Y-136126584D01*
D11*
X78556000Y-53594000D02*
X78556000Y-51054000D01*
X73196000Y-50774000D02*
X74746000Y-50774000D01*
X74746000Y-53874000D02*
X73196000Y-53874000D01*
X73196000Y-53874000D02*
X73196000Y-50774000D01*
X84266003Y-85653726D02*
X84266003Y-84891821D01*
X84646955Y-85272773D02*
X83885050Y-85272773D01*
M02*
