G04 #@! TF.FileFunction,Soldermask,Top*
%FSLAX46Y46*%
G04 Gerber Fmt 4.6, Leading zero omitted, Abs format (unit mm)*
G04 Created by KiCad (PCBNEW (2015-07-24 BZR 5989, Git 9b9c794)-product) date 27/07/2015 21:02:08*
%MOMM*%
G01*
G04 APERTURE LIST*
%ADD10C,0.100000*%
%ADD11R,1.800000X1.800000*%
%ADD12C,1.800000*%
%ADD13R,1.500000X1.250000*%
%ADD14R,1.250000X1.500000*%
%ADD15O,1.559560X0.279400*%
%ADD16O,0.279400X1.559560*%
%ADD17C,1.501140*%
%ADD18R,1.500000X1.300000*%
%ADD19R,1.600000X1.600000*%
%ADD20O,1.600000X1.600000*%
%ADD21R,1.800860X3.149600*%
%ADD22O,0.657860X0.299720*%
%ADD23O,0.408940X1.658620*%
%ADD24O,1.210000X0.650000*%
G04 APERTURE END LIST*
D10*
D11*
X130175000Y-55880000D03*
D12*
X130175000Y-58420000D03*
X127635000Y-55880000D03*
X127635000Y-58420000D03*
X125095000Y-55880000D03*
X125095000Y-58420000D03*
X122555000Y-55880000D03*
X122555000Y-58420000D03*
X120015000Y-58420000D03*
X81915000Y-55880000D03*
X81915000Y-58420000D03*
X79375000Y-55880000D03*
X79375000Y-58420000D03*
X76835000Y-55880000D03*
X76835000Y-58420000D03*
X74295000Y-55880000D03*
X74295000Y-58420000D03*
D11*
X130175000Y-104140000D03*
D12*
X130175000Y-106680000D03*
X127635000Y-104140000D03*
X127635000Y-106680000D03*
X125095000Y-104140000D03*
X125095000Y-106680000D03*
X122555000Y-104140000D03*
X122555000Y-106680000D03*
X81915000Y-104140000D03*
X81915000Y-106680000D03*
X79375000Y-104140000D03*
X79375000Y-106680000D03*
X76835000Y-104140000D03*
X76835000Y-106680000D03*
X74295000Y-104140000D03*
X74295000Y-106680000D03*
D13*
X75688210Y-95801047D03*
X78188210Y-95801047D03*
X75688210Y-93261047D03*
X78188210Y-93261047D03*
D14*
X86360000Y-69322000D03*
X86360000Y-66822000D03*
X83820000Y-69322000D03*
X83820000Y-66822000D03*
D15*
X71790560Y-74482960D03*
X71790560Y-74983340D03*
X71790560Y-75483720D03*
X71790560Y-75984100D03*
X71790560Y-76484480D03*
X71790560Y-76982320D03*
X71790560Y-77482700D03*
X71790560Y-77983080D03*
X71790560Y-78480920D03*
X71790560Y-78981300D03*
X71790560Y-79481680D03*
X71790560Y-79979520D03*
X71790560Y-80479900D03*
X71790560Y-80980280D03*
X71790560Y-81480660D03*
X71790560Y-81981040D03*
D16*
X73720960Y-83911440D03*
X74221340Y-83911440D03*
X74721720Y-83911440D03*
X75222100Y-83911440D03*
X75722480Y-83911440D03*
X76220320Y-83911440D03*
X76720700Y-83911440D03*
X77221080Y-83911440D03*
X77718920Y-83911440D03*
X78219300Y-83911440D03*
X78719680Y-83911440D03*
X79217520Y-83911440D03*
X79717900Y-83911440D03*
X80218280Y-83911440D03*
X80718660Y-83911440D03*
X81219040Y-83911440D03*
D15*
X83149440Y-81981040D03*
X83149440Y-81480660D03*
X83149440Y-80980280D03*
X83149440Y-80479900D03*
X83149440Y-79979520D03*
X83149440Y-79481680D03*
X83149440Y-78981300D03*
X83149440Y-78480920D03*
X83149440Y-77983080D03*
X83149440Y-77482700D03*
X83149440Y-76982320D03*
X83149440Y-76484480D03*
X83149440Y-75984100D03*
X83149440Y-75483720D03*
X83149440Y-74983340D03*
X83149440Y-74482960D03*
D16*
X81219040Y-72552560D03*
X80718660Y-72552560D03*
X80218280Y-72552560D03*
X79717900Y-72552560D03*
X79217520Y-72552560D03*
X78719680Y-72552560D03*
X78219300Y-72552560D03*
X77718920Y-72552560D03*
X77221080Y-72552560D03*
X76720700Y-72552560D03*
X76220320Y-72552560D03*
X75722480Y-72552560D03*
X75222100Y-72552560D03*
X74721720Y-72552560D03*
X74221340Y-72552560D03*
X73720960Y-72552560D03*
D13*
X70124000Y-66802000D03*
X72624000Y-66802000D03*
D14*
X73406000Y-87606710D03*
X73406000Y-90106710D03*
X70358000Y-87606710D03*
X70358000Y-90106710D03*
X72902497Y-92939958D03*
X72902497Y-95439958D03*
X70362497Y-92939958D03*
X70362497Y-95439958D03*
X79254274Y-86946314D03*
X79254274Y-89446314D03*
D13*
X79736000Y-66802000D03*
X77236000Y-66802000D03*
X79736000Y-69088000D03*
X77236000Y-69088000D03*
D14*
X84334274Y-86946314D03*
X84334274Y-89446314D03*
D13*
X70124000Y-69088000D03*
X72624000Y-69088000D03*
D14*
X88900000Y-69322000D03*
X88900000Y-66822000D03*
X91440000Y-69322000D03*
X91440000Y-66822000D03*
D17*
X124460000Y-44450000D03*
X121920000Y-44450000D03*
X76962000Y-46990000D03*
X79502000Y-46990000D03*
D13*
X60940000Y-25400000D03*
X58440000Y-25400000D03*
X60940000Y-40640000D03*
X58440000Y-40640000D03*
X58440000Y-33020000D03*
X60940000Y-33020000D03*
X58420000Y-48260000D03*
X60920000Y-48260000D03*
X60940000Y-55880000D03*
X58440000Y-55880000D03*
X60940000Y-71120000D03*
X58440000Y-71120000D03*
X58440000Y-63500000D03*
X60940000Y-63500000D03*
X58440000Y-78740000D03*
X60940000Y-78740000D03*
X60940000Y-86360000D03*
X58440000Y-86360000D03*
X60940000Y-101600000D03*
X58440000Y-101600000D03*
X58440000Y-93980000D03*
X60940000Y-93980000D03*
X58440000Y-109220000D03*
X60940000Y-109220000D03*
X60940000Y-116840000D03*
X58440000Y-116840000D03*
X60940000Y-132080000D03*
X58440000Y-132080000D03*
X58440000Y-124460000D03*
X60940000Y-124460000D03*
X58440000Y-139700000D03*
X60940000Y-139700000D03*
D18*
X61040000Y-27940000D03*
X58340000Y-27940000D03*
X61040000Y-43180000D03*
X58340000Y-43180000D03*
X61040000Y-58420000D03*
X58340000Y-58420000D03*
X61040000Y-73660000D03*
X58340000Y-73660000D03*
X61040000Y-88900000D03*
X58340000Y-88900000D03*
X61040000Y-104140000D03*
X58340000Y-104140000D03*
X61040000Y-119380000D03*
X58340000Y-119380000D03*
X61040000Y-134620000D03*
X58340000Y-134620000D03*
D19*
X124460000Y-50800000D03*
D20*
X121920000Y-50800000D03*
X119380000Y-50800000D03*
D17*
X46990000Y-134620000D03*
X49530000Y-134620000D03*
X46990000Y-119380000D03*
X49530000Y-119380000D03*
X46990000Y-104140000D03*
X49530000Y-104140000D03*
X46990000Y-88900000D03*
X49530000Y-88900000D03*
X46990000Y-73660000D03*
X49530000Y-73660000D03*
X46990000Y-58420000D03*
X49530000Y-58420000D03*
X46990000Y-43180000D03*
X49530000Y-43180000D03*
X46990000Y-27940000D03*
X49530000Y-27940000D03*
D21*
X81794274Y-92100294D03*
X81794274Y-87848334D03*
D13*
X67798000Y-23622000D03*
X65298000Y-23622000D03*
D14*
X62484000Y-21062000D03*
X62484000Y-18562000D03*
D18*
X61040000Y-30480000D03*
X58340000Y-30480000D03*
X61040000Y-45720000D03*
X58340000Y-45720000D03*
X61040000Y-60960000D03*
X58340000Y-60960000D03*
X61040000Y-76200000D03*
X58340000Y-76200000D03*
X61040000Y-91440000D03*
X58340000Y-91440000D03*
X61040000Y-106680000D03*
X58340000Y-106680000D03*
X61040000Y-121920000D03*
X58340000Y-121920000D03*
X61040000Y-137160000D03*
X58340000Y-137160000D03*
D22*
X100302060Y-99303840D03*
X100302060Y-98806000D03*
X100302060Y-98308160D03*
X98833940Y-98308160D03*
X98833940Y-99303840D03*
D23*
X97853500Y-90795162D03*
X97218500Y-90795162D03*
X96583500Y-90795162D03*
X95948500Y-90795162D03*
X95313500Y-90795162D03*
X94678500Y-90795162D03*
X94043500Y-90795162D03*
X93408500Y-90795162D03*
X92773500Y-90795162D03*
X92138500Y-90795162D03*
X92138500Y-96052962D03*
X92773500Y-96052962D03*
X93408500Y-96052962D03*
X94043500Y-96052962D03*
X94678500Y-96052962D03*
X95313500Y-96052962D03*
X95948500Y-96052962D03*
X96583500Y-96052962D03*
X97218500Y-96052962D03*
X97853500Y-96052962D03*
D24*
X67798000Y-21016000D03*
X67798000Y-20066000D03*
X67798000Y-19116000D03*
X65298000Y-19116000D03*
X65298000Y-21016000D03*
D14*
X101346000Y-92222000D03*
X101346000Y-94722000D03*
D10*
G36*
X91694000Y-120777000D02*
X89154000Y-119507000D01*
X89154000Y-119253000D01*
X91694000Y-117983000D01*
X91694000Y-120777000D01*
X91694000Y-120777000D01*
G37*
G36*
X86614000Y-117983000D02*
X89154000Y-119253000D01*
X89154000Y-119507000D01*
X86614000Y-120777000D01*
X86614000Y-117983000D01*
X86614000Y-117983000D01*
G37*
G36*
X91694000Y-116967000D02*
X89154000Y-115697000D01*
X89154000Y-115443000D01*
X91694000Y-114173000D01*
X91694000Y-116967000D01*
X91694000Y-116967000D01*
G37*
G36*
X86614000Y-114173000D02*
X89154000Y-115443000D01*
X89154000Y-115697000D01*
X86614000Y-116967000D01*
X86614000Y-114173000D01*
X86614000Y-114173000D01*
G37*
G36*
X91694000Y-113157000D02*
X89154000Y-111887000D01*
X89154000Y-111633000D01*
X91694000Y-110363000D01*
X91694000Y-113157000D01*
X91694000Y-113157000D01*
G37*
G36*
X86614000Y-110363000D02*
X89154000Y-111633000D01*
X89154000Y-111887000D01*
X86614000Y-113157000D01*
X86614000Y-110363000D01*
X86614000Y-110363000D01*
G37*
G36*
X91697969Y-132189584D02*
X89157969Y-130919584D01*
X89157969Y-130665584D01*
X91697969Y-129395584D01*
X91697969Y-132189584D01*
X91697969Y-132189584D01*
G37*
G36*
X86617969Y-129395584D02*
X89157969Y-130665584D01*
X89157969Y-130919584D01*
X86617969Y-132189584D01*
X86617969Y-129395584D01*
X86617969Y-129395584D01*
G37*
G36*
X91697969Y-128379584D02*
X89157969Y-127109584D01*
X89157969Y-126855584D01*
X91697969Y-125585584D01*
X91697969Y-128379584D01*
X91697969Y-128379584D01*
G37*
G36*
X86617969Y-125585584D02*
X89157969Y-126855584D01*
X89157969Y-127109584D01*
X86617969Y-128379584D01*
X86617969Y-125585584D01*
X86617969Y-125585584D01*
G37*
G36*
X91697969Y-124569584D02*
X89157969Y-123299584D01*
X89157969Y-123045584D01*
X91697969Y-121775584D01*
X91697969Y-124569584D01*
X91697969Y-124569584D01*
G37*
G36*
X86617969Y-121775584D02*
X89157969Y-123045584D01*
X89157969Y-123299584D01*
X86617969Y-124569584D01*
X86617969Y-121775584D01*
X86617969Y-121775584D01*
G37*
G36*
X91697969Y-135999584D02*
X89157969Y-134729584D01*
X89157969Y-134475584D01*
X91697969Y-133205584D01*
X91697969Y-135999584D01*
X91697969Y-135999584D01*
G37*
G36*
X86617969Y-133205584D02*
X89157969Y-134475584D01*
X89157969Y-134729584D01*
X86617969Y-135999584D01*
X86617969Y-133205584D01*
X86617969Y-133205584D01*
G37*
M02*
