G04 #@! TF.FileFunction,Legend,Bot*
%FSLAX46Y46*%
G04 Gerber Fmt 4.6, Leading zero omitted, Abs format (unit mm)*
G04 Created by KiCad (PCBNEW (2015-07-24 BZR 5989, Git 9b9c794)-product) date 27/07/2015 21:02:08*
%MOMM*%
G01*
G04 APERTURE LIST*
%ADD10C,0.100000*%
%ADD11C,0.381000*%
%ADD12C,0.150000*%
G04 APERTURE END LIST*
D10*
D11*
X142875000Y-93091000D02*
X142875000Y-92710000D01*
X142875000Y-92710000D02*
X129540000Y-92710000D01*
X129540000Y-92710000D02*
X129540000Y-74930000D01*
X129540000Y-74930000D02*
X149860000Y-74930000D01*
X149860000Y-74930000D02*
X149860000Y-74549000D01*
X76200000Y-108585000D02*
X142875000Y-108585000D01*
X142875000Y-108585000D02*
X142875000Y-93091000D01*
X149860000Y-74549000D02*
X149860000Y-61595000D01*
X149860000Y-60325000D02*
X149860000Y-61595000D01*
X76200000Y-53975000D02*
X143510000Y-53975000D01*
X63500000Y-66675000D02*
X63500000Y-95885000D01*
X76200000Y-53975000D02*
G75*
G03X63500000Y-66675000I0J-12700000D01*
G01*
X63500000Y-95885000D02*
G75*
G03X76200000Y-108585000I12700000J0D01*
G01*
X149860000Y-60325000D02*
G75*
G03X143510000Y-53975000I-6350000J0D01*
G01*
D12*
X122189240Y-46149260D02*
X122689620Y-46149260D01*
X122189240Y-46149260D02*
X122189240Y-46649640D01*
X121688860Y-46149260D02*
X122189240Y-46149260D01*
X122189240Y-46149260D02*
X122189240Y-45750480D01*
X122189240Y-45750480D02*
X122189240Y-45648880D01*
X126339600Y-44450000D02*
G75*
G03X126339600Y-44450000I-3149600J0D01*
G01*
X79232760Y-45290740D02*
X78732380Y-45290740D01*
X79232760Y-45290740D02*
X79232760Y-44790360D01*
X79733140Y-45290740D02*
X79232760Y-45290740D01*
X79232760Y-45290740D02*
X79232760Y-45689520D01*
X79232760Y-45689520D02*
X79232760Y-45791120D01*
X81381600Y-46990000D02*
G75*
G03X81381600Y-46990000I-3149600J0D01*
G01*
X123190000Y-52070000D02*
X118110000Y-52070000D01*
X118110000Y-52070000D02*
X118110000Y-49530000D01*
X118110000Y-49530000D02*
X123190000Y-49530000D01*
X126010000Y-49250000D02*
X124460000Y-49250000D01*
X123190000Y-49530000D02*
X123190000Y-52070000D01*
X124460000Y-52350000D02*
X126010000Y-52350000D01*
X126010000Y-52350000D02*
X126010000Y-49250000D01*
X49911000Y-132461000D02*
X49911000Y-133477000D01*
X50419000Y-132969000D02*
X49403000Y-132969000D01*
X53340000Y-134620000D02*
G75*
G03X53340000Y-134620000I-5080000J0D01*
G01*
X49911000Y-117221000D02*
X49911000Y-118237000D01*
X50419000Y-117729000D02*
X49403000Y-117729000D01*
X53340000Y-119380000D02*
G75*
G03X53340000Y-119380000I-5080000J0D01*
G01*
X49911000Y-101981000D02*
X49911000Y-102997000D01*
X50419000Y-102489000D02*
X49403000Y-102489000D01*
X53340000Y-104140000D02*
G75*
G03X53340000Y-104140000I-5080000J0D01*
G01*
X49911000Y-86741000D02*
X49911000Y-87757000D01*
X50419000Y-87249000D02*
X49403000Y-87249000D01*
X53340000Y-88900000D02*
G75*
G03X53340000Y-88900000I-5080000J0D01*
G01*
X49911000Y-71501000D02*
X49911000Y-72517000D01*
X50419000Y-72009000D02*
X49403000Y-72009000D01*
X53340000Y-73660000D02*
G75*
G03X53340000Y-73660000I-5080000J0D01*
G01*
X49911000Y-56261000D02*
X49911000Y-57277000D01*
X50419000Y-56769000D02*
X49403000Y-56769000D01*
X53340000Y-58420000D02*
G75*
G03X53340000Y-58420000I-5080000J0D01*
G01*
X49911000Y-41021000D02*
X49911000Y-42037000D01*
X50419000Y-41529000D02*
X49403000Y-41529000D01*
X53340000Y-43180000D02*
G75*
G03X53340000Y-43180000I-5080000J0D01*
G01*
X49911000Y-25781000D02*
X49911000Y-26797000D01*
X50419000Y-26289000D02*
X49403000Y-26289000D01*
X53340000Y-27940000D02*
G75*
G03X53340000Y-27940000I-5080000J0D01*
G01*
M02*
