G04 #@! TF.FileFunction,Soldermask,Bot*
%FSLAX46Y46*%
G04 Gerber Fmt 4.6, Leading zero omitted, Abs format (unit mm)*
G04 Created by KiCad (PCBNEW (2015-07-24 BZR 5989, Git 9b9c794)-product) date 27/07/2015 21:02:08*
%MOMM*%
G01*
G04 APERTURE LIST*
%ADD10C,0.100000*%
%ADD11R,1.800000X1.800000*%
%ADD12C,1.800000*%
%ADD13C,1.501140*%
%ADD14R,1.600000X1.600000*%
%ADD15O,1.600000X1.600000*%
G04 APERTURE END LIST*
D10*
D11*
X130175000Y-55880000D03*
D12*
X130175000Y-58420000D03*
X127635000Y-55880000D03*
X127635000Y-58420000D03*
X125095000Y-55880000D03*
X125095000Y-58420000D03*
X122555000Y-55880000D03*
X122555000Y-58420000D03*
X120015000Y-58420000D03*
X81915000Y-55880000D03*
X81915000Y-58420000D03*
X79375000Y-55880000D03*
X79375000Y-58420000D03*
X76835000Y-55880000D03*
X76835000Y-58420000D03*
X74295000Y-55880000D03*
X74295000Y-58420000D03*
D11*
X130175000Y-104140000D03*
D12*
X130175000Y-106680000D03*
X127635000Y-104140000D03*
X127635000Y-106680000D03*
X125095000Y-104140000D03*
X125095000Y-106680000D03*
X122555000Y-104140000D03*
X122555000Y-106680000D03*
X81915000Y-104140000D03*
X81915000Y-106680000D03*
X79375000Y-104140000D03*
X79375000Y-106680000D03*
X76835000Y-104140000D03*
X76835000Y-106680000D03*
X74295000Y-104140000D03*
X74295000Y-106680000D03*
D13*
X124460000Y-44450000D03*
X121920000Y-44450000D03*
X76962000Y-46990000D03*
X79502000Y-46990000D03*
D14*
X124460000Y-50800000D03*
D15*
X121920000Y-50800000D03*
X119380000Y-50800000D03*
D13*
X46990000Y-134620000D03*
X49530000Y-134620000D03*
X46990000Y-119380000D03*
X49530000Y-119380000D03*
X46990000Y-104140000D03*
X49530000Y-104140000D03*
X46990000Y-88900000D03*
X49530000Y-88900000D03*
X46990000Y-73660000D03*
X49530000Y-73660000D03*
X46990000Y-58420000D03*
X49530000Y-58420000D03*
X46990000Y-43180000D03*
X49530000Y-43180000D03*
X46990000Y-27940000D03*
X49530000Y-27940000D03*
M02*
