G04 #@! TF.FileFunction,Soldermask,Top*
%FSLAX46Y46*%
G04 Gerber Fmt 4.6, Leading zero omitted, Abs format (unit mm)*
G04 Created by KiCad (PCBNEW (2015-06-10 BZR 5730, Git 63c978d)-product) date 18/06/2015 14:40:00*
%MOMM*%
G01*
G04 APERTURE LIST*
%ADD10C,0.100000*%
%ADD11R,1.250000X1.500000*%
%ADD12O,1.559560X0.279400*%
%ADD13O,0.279400X1.559560*%
%ADD14R,1.500000X1.250000*%
%ADD15C,1.501140*%
%ADD16R,1.500000X1.300000*%
%ADD17C,2.999740*%
%ADD18R,1.600000X1.600000*%
%ADD19O,1.600000X1.600000*%
%ADD20R,1.800000X1.800000*%
%ADD21C,1.800000*%
G04 APERTURE END LIST*
D10*
D11*
X86360000Y-69322000D03*
X86360000Y-66822000D03*
X83820000Y-69322000D03*
X83820000Y-66822000D03*
D12*
X71790560Y-74482960D03*
X71790560Y-74983340D03*
X71790560Y-75483720D03*
X71790560Y-75984100D03*
X71790560Y-76484480D03*
X71790560Y-76982320D03*
X71790560Y-77482700D03*
X71790560Y-77983080D03*
X71790560Y-78480920D03*
X71790560Y-78981300D03*
X71790560Y-79481680D03*
X71790560Y-79979520D03*
X71790560Y-80479900D03*
X71790560Y-80980280D03*
X71790560Y-81480660D03*
X71790560Y-81981040D03*
D13*
X73720960Y-83911440D03*
X74221340Y-83911440D03*
X74721720Y-83911440D03*
X75222100Y-83911440D03*
X75722480Y-83911440D03*
X76220320Y-83911440D03*
X76720700Y-83911440D03*
X77221080Y-83911440D03*
X77718920Y-83911440D03*
X78219300Y-83911440D03*
X78719680Y-83911440D03*
X79217520Y-83911440D03*
X79717900Y-83911440D03*
X80218280Y-83911440D03*
X80718660Y-83911440D03*
X81219040Y-83911440D03*
D12*
X83149440Y-81981040D03*
X83149440Y-81480660D03*
X83149440Y-80980280D03*
X83149440Y-80479900D03*
X83149440Y-79979520D03*
X83149440Y-79481680D03*
X83149440Y-78981300D03*
X83149440Y-78480920D03*
X83149440Y-77983080D03*
X83149440Y-77482700D03*
X83149440Y-76982320D03*
X83149440Y-76484480D03*
X83149440Y-75984100D03*
X83149440Y-75483720D03*
X83149440Y-74983340D03*
X83149440Y-74482960D03*
D13*
X81219040Y-72552560D03*
X80718660Y-72552560D03*
X80218280Y-72552560D03*
X79717900Y-72552560D03*
X79217520Y-72552560D03*
X78719680Y-72552560D03*
X78219300Y-72552560D03*
X77718920Y-72552560D03*
X77221080Y-72552560D03*
X76720700Y-72552560D03*
X76220320Y-72552560D03*
X75722480Y-72552560D03*
X75222100Y-72552560D03*
X74721720Y-72552560D03*
X74221340Y-72552560D03*
X73720960Y-72552560D03*
D14*
X70124000Y-66802000D03*
X72624000Y-66802000D03*
D11*
X74676000Y-87142000D03*
X74676000Y-89642000D03*
X72136000Y-87142000D03*
X72136000Y-89642000D03*
X74676000Y-92222000D03*
X74676000Y-94722000D03*
X72136000Y-92222000D03*
X72136000Y-94722000D03*
X78740000Y-87142000D03*
X78740000Y-89642000D03*
D14*
X79736000Y-66802000D03*
X77236000Y-66802000D03*
X79736000Y-69088000D03*
X77236000Y-69088000D03*
D11*
X83820000Y-87142000D03*
X83820000Y-89642000D03*
X81280000Y-87142000D03*
X81280000Y-89642000D03*
D14*
X70124000Y-69088000D03*
X72624000Y-69088000D03*
D11*
X88900000Y-69322000D03*
X88900000Y-66822000D03*
X91440000Y-69322000D03*
X91440000Y-66822000D03*
X81280000Y-92222000D03*
X81280000Y-94722000D03*
X78740000Y-92222000D03*
X78740000Y-94722000D03*
D15*
X124460000Y-44450000D03*
X121920000Y-44450000D03*
X76962000Y-46990000D03*
X79502000Y-46990000D03*
D14*
X60940000Y-24130000D03*
X58440000Y-24130000D03*
X60940000Y-39370000D03*
X58440000Y-39370000D03*
X60940000Y-31750000D03*
X58440000Y-31750000D03*
X60940000Y-46990000D03*
X58440000Y-46990000D03*
X60940000Y-54610000D03*
X58440000Y-54610000D03*
X60940000Y-69850000D03*
X58440000Y-69850000D03*
X60940000Y-62230000D03*
X58440000Y-62230000D03*
X60940000Y-77470000D03*
X58440000Y-77470000D03*
X60940000Y-85090000D03*
X58440000Y-85090000D03*
X60940000Y-100330000D03*
X58440000Y-100330000D03*
X60940000Y-92710000D03*
X58440000Y-92710000D03*
X60940000Y-107950000D03*
X58440000Y-107950000D03*
X60940000Y-115570000D03*
X58440000Y-115570000D03*
X60940000Y-130810000D03*
X58440000Y-130810000D03*
X60940000Y-123190000D03*
X58440000Y-123190000D03*
X60940000Y-138430000D03*
X58440000Y-138430000D03*
D16*
X61040000Y-27940000D03*
X58340000Y-27940000D03*
X61040000Y-43180000D03*
X58340000Y-43180000D03*
X61040000Y-58420000D03*
X58340000Y-58420000D03*
X61040000Y-73660000D03*
X58340000Y-73660000D03*
X61040000Y-88900000D03*
X58340000Y-88900000D03*
X61040000Y-104140000D03*
X58340000Y-104140000D03*
X61040000Y-119380000D03*
X58340000Y-119380000D03*
X61040000Y-134620000D03*
X58340000Y-134620000D03*
D17*
X89916000Y-81788000D03*
D18*
X124460000Y-50800000D03*
D19*
X121920000Y-50800000D03*
X119380000Y-50800000D03*
D15*
X46990000Y-134620000D03*
X49530000Y-134620000D03*
X46990000Y-119380000D03*
X49530000Y-119380000D03*
X46990000Y-104140000D03*
X49530000Y-104140000D03*
X46990000Y-88900000D03*
X49530000Y-88900000D03*
X46990000Y-73660000D03*
X49530000Y-73660000D03*
X46990000Y-58420000D03*
X49530000Y-58420000D03*
X46990000Y-43180000D03*
X49530000Y-43180000D03*
X46990000Y-27940000D03*
X49530000Y-27940000D03*
D20*
X130175000Y-55880000D03*
D21*
X130175000Y-58420000D03*
X127635000Y-55880000D03*
X127635000Y-58420000D03*
X125095000Y-55880000D03*
X125095000Y-58420000D03*
X122555000Y-55880000D03*
X122555000Y-58420000D03*
X81915000Y-55880000D03*
X81915000Y-58420000D03*
X79375000Y-55880000D03*
X79375000Y-58420000D03*
X76835000Y-55880000D03*
X76835000Y-58420000D03*
X74295000Y-55880000D03*
X74295000Y-58420000D03*
D20*
X130175000Y-104140000D03*
D21*
X130175000Y-106680000D03*
X127635000Y-104140000D03*
X127635000Y-106680000D03*
X125095000Y-104140000D03*
X125095000Y-106680000D03*
X122555000Y-104140000D03*
X122555000Y-106680000D03*
X81915000Y-104140000D03*
X81915000Y-106680000D03*
X79375000Y-104140000D03*
X79375000Y-106680000D03*
X76835000Y-104140000D03*
X76835000Y-106680000D03*
X74295000Y-104140000D03*
X74295000Y-106680000D03*
M02*
