<?xml version="1.0" standalone="no"?>
 <!DOCTYPE svg PUBLIC "-//W3C//DTD SVG 1.1//EN" 
 "http://www.w3.org/Graphics/SVG/1.1/DTD/svg11.dtd"> 
<svg xmlns="http://www.w3.org/2000/svg" version="1.1" 
    width="29.7002cm" height="21.0007cm" viewBox="0 0 116930 82680 ">
<title>SVG Picture created as proto_array-drl_map.svg date 2015/06/18 14:40:05 </title>
  <desc>Picture generated by PCBNEW </desc>
<g style="fill:#000000; fill-opacity:1;stroke:#000000; stroke-opacity:1;
stroke-linecap:round; stroke-linejoin:round; "
 transform="translate(0 0) scale(1 1)">
</g>
<g style="fill:#000000; fill-opacity:0.0; 
stroke:#000000; stroke-width:78.7402; stroke-opacity:1; 
stroke-linecap:round; stroke-linejoin:round;">
<path d="M54000 36500
L54000 57500
" />
<path d="M51000 36500
L54000 36500
" />
<path d="M51000 29500
L51000 36500
" />
<path d="M54000 29500
L51000 29500
" />
<path d="M15000 57500
L15000 6500
" />
<path d="M54000 57500
L15000 57500
" />
<path d="M54000 6500
L54000 29500
" />
<path d="M15000 6500
L54000 6500
" />
</g>
<g style="fill:#000000; fill-opacity:0.0; 
stroke:#000000; stroke-width:78.7402; stroke-opacity:1; 
stroke-linecap:round; stroke-linejoin:round;">
<path d="M18342 10842
L18657 11157
" />
<path d="M18657 10842
L18342 11157
" />
<path d="M18342 16842
L18657 17157
" />
<path d="M18657 16842
L18342 17157
" />
<path d="M18342 22842
L18657 23157
" />
<path d="M18657 22842
L18342 23157
" />
<path d="M18342 28842
L18657 29157
" />
<path d="M18657 28842
L18342 29157
" />
<path d="M18342 34842
L18657 35157
" />
<path d="M18657 34842
L18342 35157
" />
<path d="M18342 40842
L18657 41157
" />
<path d="M18657 40842
L18342 41157
" />
<path d="M18342 46842
L18657 47157
" />
<path d="M18657 46842
L18342 47157
" />
<path d="M18342 52842
L18657 53157
" />
<path d="M18657 52842
L18342 53157
" />
<path d="M19342 10842
L19657 11157
" />
<path d="M19657 10842
L19342 11157
" />
<path d="M19342 16842
L19657 17157
" />
<path d="M19657 16842
L19342 17157
" />
<path d="M19342 22842
L19657 23157
" />
<path d="M19657 22842
L19342 23157
" />
<path d="M19342 28842
L19657 29157
" />
<path d="M19657 28842
L19342 29157
" />
<path d="M19342 34842
L19657 35157
" />
<path d="M19657 34842
L19342 35157
" />
<path d="M19342 40842
L19657 41157
" />
<path d="M19657 40842
L19342 41157
" />
<path d="M19342 46842
L19657 47157
" />
<path d="M19657 46842
L19342 47157
" />
<path d="M19342 52842
L19657 53157
" />
<path d="M19657 52842
L19342 53157
" />
<path d="M29092 21842
L29407 22157
" />
<path d="M29407 21842
L29092 22157
" />
<path d="M29092 22842
L29407 23157
" />
<path d="M29407 22842
L29092 23157
" />
<path d="M29092 40842
L29407 41157
" />
<path d="M29407 40842
L29092 41157
" />
<path d="M29092 41842
L29407 42157
" />
<path d="M29407 41842
L29092 42157
" />
<path d="M30092 21842
L30407 22157
" />
<path d="M30407 21842
L30092 22157
" />
<path d="M30092 22842
L30407 23157
" />
<path d="M30407 22842
L30092 23157
" />
<path d="M30092 40842
L30407 41157
" />
<path d="M30407 40842
L30092 41157
" />
<path d="M30092 41842
L30407 42157
" />
<path d="M30407 41842
L30092 42157
" />
<path d="M31092 21842
L31407 22157
" />
<path d="M31407 21842
L31092 22157
" />
<path d="M31092 22842
L31407 23157
" />
<path d="M31407 22842
L31092 23157
" />
<path d="M31092 40842
L31407 41157
" />
<path d="M31407 40842
L31092 41157
" />
<path d="M31092 41842
L31407 42157
" />
<path d="M31407 41842
L31092 42157
" />
<path d="M32092 21842
L32407 22157
" />
<path d="M32407 21842
L32092 22157
" />
<path d="M32092 22842
L32407 23157
" />
<path d="M32407 22842
L32092 23157
" />
<path d="M32092 40842
L32407 41157
" />
<path d="M32407 40842
L32092 41157
" />
<path d="M32092 41842
L32407 42157
" />
<path d="M32407 41842
L32092 42157
" />
<path d="M46842 19842
L47157 20157
" />
<path d="M47157 19842
L46842 20157
" />
<path d="M47842 19842
L48157 20157
" />
<path d="M48157 19842
L47842 20157
" />
<path d="M48092 21842
L48407 22157
" />
<path d="M48407 21842
L48092 22157
" />
<path d="M48092 22842
L48407 23157
" />
<path d="M48407 22842
L48092 23157
" />
<path d="M48092 40842
L48407 41157
" />
<path d="M48407 40842
L48092 41157
" />
<path d="M48092 41842
L48407 42157
" />
<path d="M48407 41842
L48092 42157
" />
<path d="M48842 19842
L49157 20157
" />
<path d="M49157 19842
L48842 20157
" />
<path d="M49092 21842
L49407 22157
" />
<path d="M49407 21842
L49092 22157
" />
<path d="M49092 22842
L49407 23157
" />
<path d="M49407 22842
L49092 23157
" />
<path d="M49092 40842
L49407 41157
" />
<path d="M49407 40842
L49092 41157
" />
<path d="M49092 41842
L49407 42157
" />
<path d="M49407 41842
L49092 42157
" />
<path d="M50092 21842
L50407 22157
" />
<path d="M50407 21842
L50092 22157
" />
<path d="M50092 22842
L50407 23157
" />
<path d="M50407 22842
L50092 23157
" />
<path d="M50092 40842
L50407 41157
" />
<path d="M50407 40842
L50092 41157
" />
<path d="M50092 41842
L50407 42157
" />
<path d="M50407 41842
L50092 42157
" />
<path d="M51092 21842
L51407 22157
" />
<path d="M51407 21842
L51092 22157
" />
<path d="M51092 22842
L51407 23157
" />
<path d="M51407 22842
L51092 23157
" />
<path d="M51092 40842
L51407 41157
" />
<path d="M51407 40842
L51092 41157
" />
<path d="M51092 41842
L51407 42157
" />
<path d="M51407 41842
L51092 42157
" />
<circle cx="30300" cy="18500" r="157.5" /> 
<circle cx="31300" cy="18500" r="157.5" /> 
<circle cx="48000" cy="17500" r="157.5" /> 
<circle cx="49000" cy="17500" r="157.5" /> 
</g>
<g style="fill:#000000; fill-opacity:0.0; 
stroke:#000000; stroke-width:118.11; stroke-opacity:1; 
stroke-linecap:round; stroke-linejoin:round;">
<path d="M16029 59372
L16029 58191
L16310 58191
L16479 58248
L16591 58360
L16647 58473
L16704 58697
L16704 58866
L16647 59091
L16591 59204
L16479 59316
L16310 59372
L16029 59372
" />
<path d="M17210 59372
L17210 58585
" />
<path d="M17210 58810
L17266 58697
L17322 58641
L17435 58585
L17547 58585
" />
<path d="M17941 59372
L17941 58585
" />
<path d="M17941 58191
L17885 58248
L17941 58304
L17997 58248
L17941 58191
L17941 58304
" />
<path d="M18672 59372
L18560 59316
L18503 59204
L18503 58191
" />
<path d="M19291 59372
L19178 59316
L19122 59204
L19122 58191
" />
<path d="M20641 59372
L20641 58191
L21034 59035
L21428 58191
L21428 59372
" />
<path d="M22497 59372
L22497 58754
L22440 58641
L22328 58585
L22103 58585
L21991 58641
" />
<path d="M22497 59316
L22384 59372
L22103 59372
L21991 59316
L21934 59204
L21934 59091
L21991 58979
L22103 58922
L22384 58922
L22497 58866
" />
<path d="M23059 58585
L23059 59766
" />
<path d="M23059 58641
L23172 58585
L23397 58585
L23509 58641
L23565 58697
L23622 58810
L23622 59147
L23565 59260
L23509 59316
L23397 59372
L23172 59372
L23059 59316
" />
<path d="M24128 59260
L24184 59316
L24128 59372
L24071 59316
L24128 59260
L24128 59372
" />
<path d="M24128 58641
L24184 58697
L24128 58754
L24071 58697
L24128 58641
L24128 58754
" />
<path d="M14645 61161
L14960 61476
" />
<path d="M14960 61161
L14645 61476
" />
<path d="M16254 60672
L16366 60672
L16479 60728
L16535 60784
L16591 60897
L16647 61122
L16647 61403
L16591 61628
L16535 61740
L16479 61796
L16366 61853
L16254 61853
L16141 61796
L16085 61740
L16029 61628
L15973 61403
L15973 61122
L16029 60897
L16085 60784
L16141 60728
L16254 60672
" />
<path d="M17154 61740
L17210 61796
L17154 61853
L17097 61796
L17154 61740
L17154 61853
" />
<path d="M17885 61178
L17772 61122
L17716 61065
L17660 60953
L17660 60897
L17716 60784
L17772 60728
L17885 60672
L18110 60672
L18222 60728
L18278 60784
L18335 60897
L18335 60953
L18278 61065
L18222 61122
L18110 61178
L17885 61178
L17772 61234
L17716 61290
L17660 61403
L17660 61628
L17716 61740
L17772 61796
L17885 61853
L18110 61853
L18222 61796
L18278 61740
L18335 61628
L18335 61403
L18278 61290
L18222 61234
L18110 61178
" />
<path d="M19066 60672
L19178 60672
L19291 60728
L19347 60784
L19403 60897
L19460 61122
L19460 61403
L19403 61628
L19347 61740
L19291 61796
L19178 61853
L19066 61853
L18953 61796
L18897 61740
L18841 61628
L18785 61403
L18785 61122
L18841 60897
L18897 60784
L18953 60728
L19066 60672
" />
<path d="M19966 61853
L19966 61065
" />
<path d="M19966 61178
L20022 61122
L20134 61065
L20303 61065
L20416 61122
L20472 61234
L20472 61853
" />
<path d="M20472 61234
L20528 61122
L20641 61065
L20809 61065
L20922 61122
L20978 61234
L20978 61853
" />
<path d="M21541 61853
L21541 61065
" />
<path d="M21541 61178
L21597 61122
L21709 61065
L21878 61065
L21991 61122
L22047 61234
L22047 61853
" />
<path d="M22047 61234
L22103 61122
L22215 61065
L22384 61065
L22497 61122
L22553 61234
L22553 61853
" />
<path d="M24859 60615
L23847 62134
" />
<path d="M26377 60672
L26490 60672
L26602 60728
L26659 60784
L26715 60897
L26771 61122
L26771 61403
L26715 61628
L26659 61740
L26602 61796
L26490 61853
L26377 61853
L26265 61796
L26209 61740
L26152 61628
L26096 61403
L26096 61122
L26152 60897
L26209 60784
L26265 60728
L26377 60672
" />
<path d="M27277 61740
L27334 61796
L27277 61853
L27221 61796
L27277 61740
L27277 61853
" />
<path d="M28065 60672
L28177 60672
L28290 60728
L28346 60784
L28402 60897
L28458 61122
L28458 61403
L28402 61628
L28346 61740
L28290 61796
L28177 61853
L28065 61853
L27952 61796
L27896 61740
L27840 61628
L27784 61403
L27784 61122
L27840 60897
L27896 60784
L27952 60728
L28065 60672
" />
<path d="M28852 60672
L29583 60672
L29190 61122
L29358 61122
L29471 61178
L29527 61234
L29583 61347
L29583 61628
L29527 61740
L29471 61796
L29358 61853
L29021 61853
L28908 61796
L28852 61740
" />
<path d="M30708 61853
L30033 61853
" />
<path d="M30371 61853
L30371 60672
L30258 60840
L30146 60953
L30033 61009
" />
<path d="M31158 60672
L31158 60897
" />
<path d="M31608 60672
L31608 60897
" />
<path d="M33352 62303
L33295 62246
L33183 62078
L33127 61965
L33070 61796
L33014 61515
L33014 61290
L33070 61009
L33127 60840
L33183 60728
L33295 60559
L33352 60503
" />
<path d="M34364 60672
L33802 60672
L33745 61234
L33802 61178
L33914 61122
L34195 61122
L34308 61178
L34364 61234
L34420 61347
L34420 61628
L34364 61740
L34308 61796
L34195 61853
L33914 61853
L33802 61796
L33745 61740
" />
<path d="M35545 61853
L34870 61853
" />
<path d="M35208 61853
L35208 60672
L35095 60840
L34983 60953
L34870 61009
" />
<path d="M36951 61853
L36951 60672
" />
<path d="M37457 61853
L37457 61234
L37401 61122
L37289 61065
L37120 61065
L37007 61122
L36951 61178
" />
<path d="M38188 61853
L38076 61796
L38020 61740
L37964 61628
L37964 61290
L38020 61178
L38076 61122
L38188 61065
L38357 61065
L38470 61122
L38526 61178
L38582 61290
L38582 61628
L38526 61740
L38470 61796
L38357 61853
L38188 61853
" />
<path d="M39257 61853
L39145 61796
L39088 61684
L39088 60672
" />
<path d="M40157 61796
L40044 61853
L39820 61853
L39707 61796
L39651 61684
L39651 61234
L39707 61122
L39820 61065
L40044 61065
L40157 61122
L40213 61234
L40213 61347
L39651 61459
" />
<path d="M40663 61796
L40776 61853
L41001 61853
L41113 61796
L41169 61684
L41169 61628
L41113 61515
L41001 61459
L40832 61459
L40719 61403
L40663 61290
L40663 61234
L40719 61122
L40832 61065
L41001 61065
L41113 61122
" />
<path d="M41563 62303
L41619 62246
L41732 62078
L41788 61965
L41844 61796
L41901 61515
L41901 61290
L41844 61009
L41788 60840
L41732 60728
L41619 60559
L41563 60503
" />
<circle cx="14803.1" cy="62878" r="157.5" /> 
<path d="M16254 62231
L16366 62231
L16479 62287
L16535 62343
L16591 62456
L16647 62681
L16647 62962
L16591 63187
L16535 63299
L16479 63356
L16366 63412
L16254 63412
L16141 63356
L16085 63299
L16029 63187
L15973 62962
L15973 62681
L16029 62456
L16085 62343
L16141 62287
L16254 62231
" />
<path d="M17154 63299
L17210 63356
L17154 63412
L17097 63356
L17154 63299
L17154 63412
" />
<path d="M17885 62737
L17772 62681
L17716 62624
L17660 62512
L17660 62456
L17716 62343
L17772 62287
L17885 62231
L18110 62231
L18222 62287
L18278 62343
L18335 62456
L18335 62512
L18278 62624
L18222 62681
L18110 62737
L17885 62737
L17772 62793
L17716 62849
L17660 62962
L17660 63187
L17716 63299
L17772 63356
L17885 63412
L18110 63412
L18222 63356
L18278 63299
L18335 63187
L18335 62962
L18278 62849
L18222 62793
L18110 62737
" />
<path d="M19066 62231
L19178 62231
L19291 62287
L19347 62343
L19403 62456
L19460 62681
L19460 62962
L19403 63187
L19347 63299
L19291 63356
L19178 63412
L19066 63412
L18953 63356
L18897 63299
L18841 63187
L18785 62962
L18785 62681
L18841 62456
L18897 62343
L18953 62287
L19066 62231
" />
<path d="M19966 63412
L19966 62624
" />
<path d="M19966 62737
L20022 62681
L20134 62624
L20303 62624
L20416 62681
L20472 62793
L20472 63412
" />
<path d="M20472 62793
L20528 62681
L20641 62624
L20809 62624
L20922 62681
L20978 62793
L20978 63412
" />
<path d="M21541 63412
L21541 62624
" />
<path d="M21541 62737
L21597 62681
L21709 62624
L21878 62624
L21991 62681
L22047 62793
L22047 63412
" />
<path d="M22047 62793
L22103 62681
L22215 62624
L22384 62624
L22497 62681
L22553 62793
L22553 63412
" />
<path d="M24859 62174
L23847 63693
" />
<path d="M26377 62231
L26490 62231
L26602 62287
L26659 62343
L26715 62456
L26771 62681
L26771 62962
L26715 63187
L26659 63299
L26602 63356
L26490 63412
L26377 63412
L26265 63356
L26209 63299
L26152 63187
L26096 62962
L26096 62681
L26152 62456
L26209 62343
L26265 62287
L26377 62231
" />
<path d="M27277 63299
L27334 63356
L27277 63412
L27221 63356
L27277 63299
L27277 63412
" />
<path d="M28065 62231
L28177 62231
L28290 62287
L28346 62343
L28402 62456
L28458 62681
L28458 62962
L28402 63187
L28346 63299
L28290 63356
L28177 63412
L28065 63412
L27952 63356
L27896 63299
L27840 63187
L27784 62962
L27784 62681
L27840 62456
L27896 62343
L27952 62287
L28065 62231
" />
<path d="M28852 62231
L29583 62231
L29190 62681
L29358 62681
L29471 62737
L29527 62793
L29583 62906
L29583 63187
L29527 63299
L29471 63356
L29358 63412
L29021 63412
L28908 63356
L28852 63299
" />
<path d="M30033 62343
L30089 62287
L30202 62231
L30483 62231
L30596 62287
L30652 62343
L30708 62456
L30708 62568
L30652 62737
L29977 63412
L30708 63412
" />
<path d="M31158 62231
L31158 62456
" />
<path d="M31608 62231
L31608 62456
" />
<path d="M33352 63862
L33295 63805
L33183 63637
L33127 63524
L33070 63356
L33014 63074
L33014 62849
L33070 62568
L33127 62399
L33183 62287
L33295 62118
L33352 62062
" />
<path d="M34308 62624
L34308 63412
" />
<path d="M34026 62174
L33745 63018
L34476 63018
" />
<path d="M35826 63412
L35826 62231
" />
<path d="M36332 63412
L36332 62793
L36276 62681
L36164 62624
L35995 62624
L35883 62681
L35826 62737
" />
<path d="M37064 63412
L36951 63356
L36895 63299
L36839 63187
L36839 62849
L36895 62737
L36951 62681
L37064 62624
L37232 62624
L37345 62681
L37401 62737
L37457 62849
L37457 63187
L37401 63299
L37345 63356
L37232 63412
L37064 63412
" />
<path d="M38132 63412
L38020 63356
L37964 63243
L37964 62231
" />
<path d="M39032 63356
L38920 63412
L38695 63412
L38582 63356
L38526 63243
L38526 62793
L38582 62681
L38695 62624
L38920 62624
L39032 62681
L39088 62793
L39088 62906
L38526 63018
" />
<path d="M39538 63356
L39651 63412
L39876 63412
L39988 63356
L40044 63243
L40044 63187
L39988 63074
L39876 63018
L39707 63018
L39595 62962
L39538 62849
L39538 62793
L39595 62681
L39707 62624
L39876 62624
L39988 62681
" />
<path d="M40438 63862
L40494 63805
L40607 63637
L40663 63524
L40719 63356
L40776 63074
L40776 62849
L40719 62568
L40663 62399
L40607 62287
L40494 62118
L40438 62062
" />
</g> 
</svg>
